<svg width="24" height="24" viewBox="0 0 24 24" fill="none" xmlns="http://www.w3.org/2000/svg">
<g id="plus">
<path id="Add" d="M17.5002 10.5H13.6002C13.5483 10.4965 13.4995 10.4743 13.4627 10.4375C13.4259 10.4008 13.4037 10.3519 13.4002 10.3V6.50001C13.4149 6.30772 13.3895 6.11449 13.3257 5.93252C13.2618 5.75055 13.1609 5.5838 13.0294 5.44282C12.8978 5.30184 12.7384 5.1897 12.5612 5.11348C12.3841 5.03726 12.1931 4.99862 12.0002 5.00001C11.8022 4.99634 11.6055 5.03264 11.4219 5.10672C11.2383 5.18081 11.0714 5.29116 10.9314 5.43119C10.7914 5.57121 10.681 5.73803 10.607 5.92168C10.5329 6.10532 10.4966 6.30202 10.5002 6.50001V10.4C10.4967 10.4519 10.4745 10.5008 10.4378 10.5375C10.401 10.5743 10.3521 10.5965 10.3002 10.6H6.50024C6.30622 10.5768 6.10946 10.5962 5.92371 10.6568C5.73797 10.7175 5.56772 10.8181 5.42486 10.9514C5.28201 11.0847 5.17 11.2476 5.09665 11.4288C5.02331 11.6099 4.9904 11.8048 5.00024 12C5.00988 12.3948 5.171 12.7708 5.45025 13.05C5.72949 13.3292 6.10545 13.4904 6.50024 13.5H10.4002C10.4521 13.5035 10.501 13.5257 10.5378 13.5625C10.5745 13.5993 10.5967 13.6481 10.6002 13.7V17.6C10.5954 17.7852 10.6283 17.9694 10.697 18.1414C10.7657 18.3134 10.8686 18.4697 10.9996 18.6007C11.1305 18.7316 11.2868 18.8346 11.4588 18.9032C11.6309 18.9719 11.8151 19.0048 12.0002 19C12.395 18.9904 12.771 18.8292 13.0502 18.55C13.3295 18.2708 13.4906 17.8948 13.5002 17.5V13.6C13.5037 13.5481 13.5259 13.4993 13.5627 13.4625C13.5995 13.4257 13.6483 13.4035 13.7002 13.4H17.6002C17.9691 13.3923 18.3208 13.2424 18.5817 12.9815C18.8426 12.7206 18.9926 12.3689 19.0002 12C19.0166 11.7989 18.9889 11.5966 18.9193 11.4072C18.8497 11.2178 18.7398 11.0458 18.5971 10.9032C18.4544 10.7605 18.2824 10.6505 18.093 10.5809C17.9036 10.5113 17.7014 10.4837 17.5002 10.5Z" fill="#8774B8"/>
</g>
</svg>
