<svg width="18" height="18" viewBox="0 0 18 18" fill="none" xmlns="http://www.w3.org/2000/svg">
<g id="3 Watch" opacity="0.7">
<path id="Fill 61" fill-rule="evenodd" clip-rule="evenodd" d="M12.4375 9.625H9.625C8.93437 9.625 8.375 9.06563 8.375 8.375V4.625C8.375 4.28125 8.65625 4 9 4C9.34375 4 9.625 4.28125 9.625 4.625V8.375H12.4375C12.7812 8.375 13.0625 8.65625 13.0625 9C13.0625 9.34375 12.7812 9.625 12.4375 9.625ZM9 1.5C4.85938 1.5 1.5 4.85938 1.5 9C1.5 13.1406 4.85938 16.5 9 16.5C13.1406 16.5 16.5 13.1406 16.5 9C16.5 4.85938 13.1406 1.5 9 1.5Z" fill="#8774B8"/>
</g>
</svg>
